# xmcd CD database file
#
# Track frame offsets:
#	150
#	20849
#	38290
#	56573
#	78478
#	95264
#	121851
#	140000
#	163109
#
# Disc length: 2400 seconds
#
# Revision: 0
# Processed by: cddbd v1.5.2PL0 Copyright (c) Steve Scherf et al.
# Submitted via: CDex 1.70beta2
#
DISCID=6d095e09
DTITLE=CYTOKINE - Virtual x Real
DYEAR=2007
DGENRE=東方アレンジ
TTITLE0=Yume x Utsutsu
TTITLE1=Old World
TTITLE2=Adventures in Wonderland
TTITLE3=problem-solving game
TTITLE4=Forbidden Forest
TTITLE5=tick down
TTITLE6=moon-bound path
TTITLE7=kaleidoscreen for 53minutes
TTITLE8=The Hiroshige Thirty-six ～卯東京→酉京都mix
EXTD=YEAR: 2007
EXTT0=
EXTT1=
EXTT2=
EXTT3=
EXTT4=
EXTT5=
EXTT6=
EXTT7=
EXTT8=
PLAYORDER=
